<svg xmlns="http://www.w3.org/2000/svg" xmlns:xlink="http://www.w3.org/1999/xlink" viewBox="0 0 983 507">
  <g id="shadow_Image" data-name="shadow Image">
    <image id="shadow_Image-2" data-name="shadow Image" width="983" height="507" xlink:href="shoe-exercise1.png"/>
  </g>
  <g id="sole" style="isolation: isolate">
    <path d="M959,327c16.54,5.85,15.37,52.78,6,69-4.78,8.28-18.2,19.05-25,23-2.91,1.69-6.44,2.43-9,4a227.33,227.33,0,0,1-44,21c-16.74,5.93-35.24,7.85-52,13-14.88,4.57-47.8,11.07-52,0-1.14-2.54,6-11.36,12-13,6.5-1.78,36.07-1.2,51-5,27.06-6.88,53.28-13.84,76-24,16-7.16,35.41-15.78,39-29,1.6-6.89-.67-7.33-1-11,.71-6,2-17.51,1-23C960.13,347.4,954.21,332.81,959,327Z" fill="none" fill-rule="evenodd"/>
    <path d="M12,395c-.89-2.65-2-10-1-10,3.91,10.9,16,17.06,25,23a153.26,153.26,0,0,0,29,15c13.39,4.93,29.17,6.6,43,10,15,0,16.85,2,24,2,22.55,5.7,43.47,19.2,62,22s33.34,0,50,0c3.84-.92,12.47-4.65,18-3,1.78.53,3.44,2.32,6,3,12.94-20.08,44.14-43.87,80-31l14,2c27.95,12.09,54.53,23.63,86,33,10.38,3.09,30.64-5.15,39-7,4.24-.94,3.59,4.32,10,2,24.49-8.87,78.16-17.83,104-18,23.59-.16,57,5.47,63,7,19.64,5,38.74,9.07,58,13,14.17,2.89,39.84-6.81,54-5,1.86.35,1.84,2.68,1,3a43,43,0,0,1-7,3,187.87,187.87,0,0,1-42,10c-14.82,1.62-42,1-63,1H564c-13.13,0-29.91,1.43-40-1H508c-7-1.78-8-8.17-16-9-16.55,11.89-57.36,10.05-86,10-6.91,0-12.68-2-18-1l-4,1c-6.67-.67-8.33-.33-15-1-18.2-.09-46.05,1.64-61-2H290c-5.56-1.37-13.37-4.77-18-6-6.42-1.7-12.92.22-20,1-7.38,1.24-15.35,2.86-20,3s-35.63,3.06-57,3c-16.27-.05-32.24-3.58-45-7-37.55-10.06-64.12-19.34-92-38C26,415,16.24,409,12,395Z" fill="none" fill-rule="evenodd"/>
  </g>
  <g id="middle" style="isolation: isolate">
    <path d="M179,183c16.43-8.19,36.26-5.43,57-5s60,3.17,73,8c27.44,10.2,77,58.15,124,85,6.37,3.64-27.34,35.64-27,41s-132.81-35.92-149-36c-22.36-.11-27.73,7-34,8s-23-4.31-30-4-30,4-30,4-21.16-24.53-21-45C142.13,221.9,167.42,188.77,179,183Z" fill="none" fill-rule="evenodd"/>
  </g>
  <g id="front-back" style="isolation: isolate">
    <path d="M408,316s18.93-39,38-50c28.37-16.32,64.2-26.3,99-31s60.64-3.21,76-8,33.24-18.37,34-28c.41-5.24,16.49,5.14,23,7s-14.82,4.25-4,10,26.39,5.27,33,6,6.47,3.59,8,4,11.31,3.93,13,5c12.86,8.14,29.81,17.22,43,21,17.26,4.95,98.1,31.44,137,48s45.86,22.14,50,26,2,2,2,2-2.78,5-2,8,3.32,14.74,3,19,1,20.6-1,20c-10.34-3.05-39.43-11.14-52-15-11.07-3.4-91.86-20.54-117-22-60-3.49-47.2-5.32-88-8-20.86-1.37-60.21,7-81,6s-44.51-15.11-55-18c-10.25-2.82-32.94-2.29-53,3-23.38,6.17-36.13,4.79-52,4C429.45,323.38,408,316,408,316Z" fill="none" fill-rule="evenodd"/>
    <path d="M520,292s-10.6-14.27,49-31c36.57-10.26,55.18-9.59,69-13,24.2-6,49.51-16.51,64-13s32.71,15.75,38,20c15,12.09,49.7,23.8,64,29,20,7.26,65,29,65,29s-107.07-26-143-30-77.07-10.33-108-4S525.93,311.75,520,292Z" fill="none" fill-rule="evenodd"/>
    <path d="M52,268a3.34,3.34,0,0,0,2-3c0-2.15.46-32.49,3-43a119.26,119.26,0,0,1,22-46c13.09-16.82,16.78-22,20-30s8.07-22.11,14-29c4.09-4.75,6.91-6.52,10-6,6,1,9.57,13.64,11,26a87.63,87.63,0,0,0,12,34c5.53,9,19,23,19,23s-12.76,14.79-17,25-5.95,16.56-6,23,2.44,14.95,8,23,12,18,12,18-11.39,3.56-14,5-21-3.15-28-5-31.39-5-44-7C67.32,274.63,52,268,52,268Z" fill="none" fill-rule="evenodd"/>
  </g>
  <g id="top-bottom" style="isolation: isolate">
    <path d="M51,270c9.06.69,19.06,5.53,28,8l40,6c5.66,1.69,23,8,30,6,3.93-1.11,7.74-4.84,12-6,6.53-1.77,15.39-.81,20-2,16.38-4.22,29.34,6.15,46,2,9.52-2.37,22.56-9.92,38-6,55.41,14.06,112,30.46,164,44h10a114,114,0,0,0,42,2l8,2c4.46,0,20.17-2.54,26-4,10-2.51,35.48-7.83,50-4,16,4.21,32.21,13.37,50,18,9,2.35,23.84-.41,30-2h26c9-2.19,38.21-5,50-2,15.39,3.86,37.12,2.14,52,6h18c16.32,4.12,37.77,5.75,54,10,8.28,2.17,14-.08,22,2,11.16,2.9,25.12,6.92,36,10,20.3,5.75,46.81,9.54,60,22-8,19.44-30.34,29.59-50,37-19.4,7.31-36.59,13.48-59,19a69.16,69.16,0,0,1-15,2,192.2,192.2,0,0,1-20,3c-6.19.35-10.67,1-16,1-18.27.88-13.7,8.55-21,11-5-3.06-14-2-18-1-9.06,2.27-36.13,5.69-47,3-14.09-3.49-29.92-7.46-44-11-4,0-13.22-2.67-18-3s-26.56-2.45-42-5c-14-2.3-41.06,1.31-51,4-16.48,4.45-37.87,7.55-55,11-9,1.82-5.4,2.87-10,5-2.11,1-4.34-3.69-8-3-4,.75-12.78,2.41-17,3-7.1,1.06-16.33,1-21,1-32.16-4.24-43.91-11.52-65-22-3.5-1.74-26.48-10.66-51-15s-42,8.78-56,20c-10.41,8.35-6.58,13.41-14,15-10.4-9.15-45,3.89-64,0-14.78-3-22.83-4-34-9-13.87-6.2-24-10.51-38-14-4,0-15-1.41-22-3-16.85-4.19-30.18-2.59-45-9-7.88-3.41-16.79-9-24-13C24.41,401.42,10.72,393,11,373c1.48-1.63.68-2.81,2-5l12-11c3.05-6.72-1.05-15.54,2-21l4-3c1.81-3.12,1.06-6.93,3-10l5-4c2.51-5.93-4.08-9.16-2-16,1.33-4.37,6.57-8.57,8-12,1.94-4.65-2-7.46-1-10C45.32,275.91,48.49,273.74,51,270Z" fill="none" fill-rule="evenodd"/>
    <path d="M277,180s45.52-15.6,59-31c12.4-14.17,14.47-27,15-43s-3.23-27.6-3-29,31.66-28.51,44-31,21-2.54,28,0,22.62,11.73,25,14-9,4.07-14,8-11.32,8.76-13,13-3.53,7.18-1,10,9.42,5.28,15,2,22.94-15.68,29-16,10.63,8.94,11,10-4.66,14-5,18-.29,13,7,15,12.72-9,15-16c.27-.83,23.7,14.35,24,16s2.83,21.12,4,23c.91,1.47,2.78,6.44,8,7s8.55-4.69,9-7,0-8,0-8,25.75,11.3,28,14,5.34,5.8,6,11,1.79,14.78,11,16,9-8,9-8,20.29,7.37,23,11,3.54,12,6,15,3.88,5.42,9,6,8.84-5,8-8,19.79,7,22,7-7.21,14.69-15,19-14.64,8-24,9c-.16,0-11.88-18.75-39-31-19.65-8.88-59.85-29.19-67-34s-30.95-17.89-38-18-26.66-.32-40,10-67,69-67,69-43.36-29.89-48-32-14.32-7.38-18-8S277,180,277,180Z" fill="none" fill-rule="evenodd"/>
  </g>
  <g id="net" style="isolation: isolate">
    <path d="M520,292s-10.6-14.27,49-31c36.57-10.26,55.18-9.59,69-13,24.2-6,49.51-16.51,64-13s32.71,15.75,38,20c15,12.09,49.7,23.8,64,29,20,7.26,65,29,65,29s-107.07-26-143-30-77.07-10.33-108-4S525.93,311.75,520,292Z" fill="none" fill-rule="evenodd"/>
    <path d="M367,223s64.87-69,70-71,14.11-7.74,22-8a59.51,59.51,0,0,1,29,6c11,5.42,102.7,53.94,109,58s17.71,12.89,19,18-41.31,2.68-67,8-66.27,12-84,21a242.7,242.7,0,0,0-30,18Z" fill="none" fill-rule="evenodd"/>
    <path d="M104,134s4.41-12.56,8-16c6.76-6.47,8.77-6.09,14-5,6.67,1.4,8.69,33.32,14,46,3.95,9.43,21.79,40.23,26,35s17.45-14.24,27-17,77.31,5.61,82,2,24.71-8.76,39-15c23.19-10.13,27.39-24.83,31-35,6.06-17,.92-47,5-54,4.62-7.9,34-27.6,48-30,23.58-4,53.29,17.41,52,15-2.95-5.51-45.57-52-58-55-13.72-3.28-42.49,19.58-52,27-12.16,9.48-25.26,15.75-34,33s6.37,36.7,6,37c-15.87,12.7-74.93,36.95-92,36-79.87-4.44-49.11-73-79-74-16.23-.56-27.47,27.85-30,33C107.68,103.75,103.67,134,104,134Z" fill="none" fill-rule="evenodd"/>
  </g>
  <g id="laces" style="isolation: isolate">
    <path d="M419,92s-9.95-19.17,22-29,43.39,13.36,44,20,5,16,5,16,11.13,1.86,16,5,8.19,9,7,7,11.6,5.36,15,11,5,7,5,7a27.33,27.33,0,0,1,17-1c9.3,2.51,23.29,15.32,26,18s10.78,11.59,11,13,8.69-3.15,18,2,24.92,16.94,27,21a17.17,17.17,0,0,1,2,9c-.43,4.52-2.66,8.73-9,8s-7.77-16.32-14-20-19.74-13.52-23-11c-.37.28-.52,7.88-10,8-7.51.09-8.69-5.23-9-8s-1.63-15.59-8-19-20-12.34-23-12-2.93,7.76-6,10-8.66,3.92-13-1-4-20.91-5-24-19.11-15.54-22-17-4.93,8.46-8,11-2.57,3.78-7,4-11.55-4.41-11-13,3.81-16,1-20-5.77-9-8-9-17.42,7.17-21,10S426.63,97,419,92Z" fill="none" fill-rule="evenodd"/>
  </g>
</svg>
